<?xml version="1.0" encoding="utf-8"?>
<!-- Generator: Adobe Illustrator 24.1.1, SVG Export Plug-In . SVG Version: 6.00 Build 0)  -->
<svg version="1.1" id="Layer_1" xmlns="http://www.w3.org/2000/svg" xmlns:xlink="http://www.w3.org/1999/xlink" x="0px" y="0px"
	 viewBox="0 0 512 512" style="enable-background:new 0 0 512 512;" xml:space="preserve">
<style type="text/css">
	.st0{fill-rule:evenodd;clip-rule:evenodd;}
</style>
<g>
	<path class="st0" d="M32,448c0,0-32,0-32-32s32-128,192-128s192,96,192,128s-32,32-32,32H32z M192,256c53,0,96-43,96-96
		s-43-96-96-96s-96,43-96,96S139,256,192,256z M507.3,164.7c6.3,6.2,6.3,16.4,0,22.6l0,0l-96,96c-6.2,6.2-16.4,6.3-22.6,0l0,0
		l-48-48c-6.2-6.3-6.2-16.4,0-22.7c6.2-6.2,16.4-6.2,22.6,0l36.7,36.7l84.7-84.7C490.9,158.4,501,158.4,507.3,164.7L507.3,164.7z"/>
</g>
</svg>
