<?xml version="1.0" encoding="utf-8"?>
<!-- Generator: Adobe Illustrator 24.1.1, SVG Export Plug-In . SVG Version: 6.00 Build 0)  -->
<svg version="1.1" id="Layer_1" xmlns="http://www.w3.org/2000/svg" xmlns:xlink="http://www.w3.org/1999/xlink" x="0px" y="0px"
	 viewBox="0 0 512 512" style="enable-background:new 0 0 512 512;" xml:space="preserve">
<style type="text/css">
	.st0{fill-rule:evenodd;clip-rule:evenodd;}
</style>
<g>
	<path class="st0" d="M32,448c0,0-32,0-32-32s32-128,192-128s192,96,192,128s-32,32-32,32H32z M192,256c53,0,96-43,96-96
		s-43-96-96-96s-96,43-96,96S139,256,192,256z M432,160c8.8,0,16,7.2,16,16v64c0,8.8-7.2,16-16,16h-64c-8.8,0-16-7.2-16-16
		s7.2-16,16-16h48v-48C416,167.2,423.2,160,432,160z"/>
	<path class="st0" d="M416,240c0-8.8,7.2-16,16-16h64c8.8,0,16,7.2,16,16s-7.2,16-16,16h-48v48c0,8.8-7.2,16-16,16s-16-7.2-16-16
		V240z"/>
</g>
</svg>
